<svg width="1512" height="982" viewBox="0 0 1512 982" fill="none" xmlns="http://www.w3.org/2000/svg">
<path d="M18.8261 1288.11C-0.398583 1288.11 -16.0012 1264.45 -16.0012 1235.29V-178.136C-16.0012 -207.297 -0.398583 -230.956 18.8261 -230.956L1588.05 -230.631V1288.11" fill="url(#paint0_radial_5_69)"/>
<mask id="mask0_5_69" style="mask-type:luminance" maskUnits="userSpaceOnUse" x="-15" y="-231" width="1605" height="1519">
<path d="M19.8477 1287.79C0.623023 1287.79 -14.9796 1264.15 -14.9796 1235.01V-177.858C-14.9796 -206.995 0.623023 -230.631 19.8477 -230.631H1554.25C1573.49 -230.631 1589.07 -206.995 1589.07 -177.858V1287.79H1554.25" fill="white"/>
</mask>
<g mask="url(#mask0_5_69)">
<path d="M1622.53 1240.42C1622.53 1240.42 1246.74 1599.88 1026.5 1281.43C806.248 962.976 1209.92 551.703 830.419 553.235C450.917 554.768 242.696 832.494 9.88712 501.484C-222.922 170.473 372.463 -100.892 200.137 -286.608L395.542 -401L2266.56 397.191L1622.53 1240.42Z" fill="url(#paint1_radial_5_69)"/>
<path d="M1542.31 1409.47C1591.88 1343.02 1594.53 1260.3 1606.46 1181.57C1621.63 1081.48 1668.25 1008.06 1757.38 958.449C1917.19 869.573 2126.55 890.236 2261.61 753.718C2316.38 698.344 2349.56 623.213 2334.19 544.761C2317.06 457.417 2249.26 391.317 2181.18 339.612C2077.56 264.225 1947.31 206.832 1816.45 220.878C1693.04 234.112 1620.35 318.647 1532.7 395.682C1472.56 448.525 1406.86 480.24 1324.92 462.246C1248 445.344 1177.35 405.178 1101.77 382.982C975.741 345.997 834.76 336.013 714.56 397.354C614.257 448.548 534.688 546.758 531.995 662.52C530.184 740.159 560.252 813.828 566.149 890.608C571.74 967.075 553.296 1043.38 513.397 1108.85C472.765 1175.65 410.564 1214.89 353.54 1265.66C307.103 1306.92 274.366 1357.25 253.191 1415.46C231.157 1476.06 222.078 1540.53 215.484 1604.38C209.123 1665.86 198.86 1732.08 230.553 1788.54C265.38 1850.48 331.436 1904.12 386.115 1947.74C440.794 1991.37 504.365 2025.33 575.552 2030.44C680.22 2037.94 792.991 1953.83 772.907 1845.96C774.456 1844.31 775.587 1842.31 776.205 1840.13C776.823 1837.95 776.91 1835.66 776.46 1833.44C741.864 1638.42 869.332 1448.03 1065.04 1411.44C1112.81 1402.38 1161.91 1403 1209.43 1413.28C1257.75 1423.93 1301.52 1447.2 1348.56 1461.73C1422.44 1484.6 1494.37 1473.71 1542.31 1409.47Z" fill="url(#paint2_linear_5_69)"/>
<path d="M770.771 718.706C819.39 558.506 1058.42 351.499 888.766 185.982C888.074 185.13 887.296 184.352 886.444 183.661C885.606 182.861 884.679 182.16 883.681 181.571C778.503 99.6833 621.316 128.38 524.101 207.11C473.021 248.46 434.966 304.159 419.131 364.617C399.233 440.608 433.782 515.089 420.617 590.639C407.894 663.634 348.084 725.183 275.573 756.55C184.024 796.136 106.568 770.899 18.8029 737.187C-115.654 685.482 -272.516 702.709 -384.033 790.448C-508.901 888.797 -537.645 1056.98 -467.619 1189.44C-463.997 1196.26 -453.873 1197.33 -447.187 1194.27L-403.072 1174.05C-429.378 1239.94 -448.185 1318.92 -387.493 1372.11C-342.496 1411.58 -267.942 1421.91 -227.867 1371.83C-215.19 1356.02 -210.663 1335.62 -197.823 1320.13C-173.606 1290.9 -139.545 1294.1 -103.696 1296.61C-37.9335 1301.3 27.1345 1313.04 90.3846 1331.65C197.955 1363.22 291.222 1420.66 394.543 1460.5C481.658 1494.1 577.967 1511.14 668.1 1476.2C748.876 1444.85 809.94 1379.68 840.704 1306.32C877.969 1217.44 870.354 1117.37 840.913 1027.71C806.574 923.274 736.315 831.937 770.771 718.706Z" fill="url(#paint3_linear_5_69)"/>
<path opacity="0.3" d="M-63.8074 352.823C-25.4741 356.445 13.3699 347.227 49.2189 326.03C71.4387 312.889 95.6553 286.978 93.8907 250.643C92.9852 232.069 85.1142 215.817 84.0462 197.243C82.0262 162.811 104.014 135.485 125.839 126.569C147.664 117.654 171.114 120.115 192.615 109.551C216.901 97.6402 236.729 70.0811 252.053 38.9698C286.88 -31.6111 302.112 -124.736 291.524 -211.778C286.778 -252.244 276.051 -291.781 259.692 -329.096" stroke="#FFF0EE" stroke-miterlimit="10"/>
<path opacity="0.3" d="M225.143 -309.407C220.5 -252.316 254.723 -204.743 260.899 -147.954C267.609 -86.2416 239.306 -27.014 205.315 7.88172C171.323 42.7775 131.295 61.1192 95.841 92.3931C77.6379 108.459 59.3187 131.143 55.9057 162.858C52.9337 190.44 61.6173 221.737 51.6103 245.14C46.9666 256.122 38.9564 262.693 31.2711 268.567C9.11371 285.659 -14.216 301.176 -38.546 315.002" stroke="#FFF0EE" stroke-miterlimit="10"/>
<path opacity="0.3" d="M-48.1119 235.482C-24.5455 246.301 -2.9293 210.361 6.35798 175.511C15.6453 140.662 21.2409 99.7298 41.5568 78.4859C57.4613 61.8622 78.1487 62.2337 96.6304 53.9683C129.461 39.411 154.072 -1.21949 176.919 -40.1086C190.339 -62.9546 203.829 -99.1737 189.596 -120.836C186.601 -125.479 182.631 -128.474 180.193 -133.628C177.221 -139.735 176.687 -147.768 176.478 -155.36C175.757 -180.749 177.405 -206.151 181.4 -231.234C183.908 -246.953 187.367 -263.483 184.163 -278.9C180.959 -294.316 167.376 -305.437 159.529 -294.571" stroke="#FFF0EE" stroke-miterlimit="10"/>
<path opacity="0.3" d="M85.9731 -256.75C85.6017 -236.551 85.741 -214.1 94.68 -199.218C99.6255 -191.022 106.568 -186.448 112.488 -179.97C129.438 -161.396 137.378 -125.734 131.272 -95.3196C125.166 -64.9048 105.476 -42.0821 84.6729 -41.3392C72.2744 -40.8748 60.2009 -47.4454 47.8256 -48.3044C35.4503 -49.1634 21.1944 -41.3392 17.2937 -23.485C15.4595 -14.9874 16.2953 -5.72368 15.6452 3.16859C14.4146 20.3263 7.82066 35.3015 1.43565 49.6034C-18.0676 92.9426 -37.5632 136.228 -57.051 179.458" stroke="#FFF0EE" stroke-miterlimit="10"/>
<path opacity="0.3" d="M938.848 1279.06C1010.64 1243.28 1074.35 1168.52 1063.23 1081.71C1057.14 1034.18 1029.4 985.66 1043.61 941.407C1056.12 902.379 1096.89 883.991 1135.3 879.161C1173.7 874.332 1213.82 878.674 1250.44 866.601C1330.24 840.295 1367.9 747.844 1414.66 674.453C1424.13 659.594 1435.14 644.549 1451.06 638.513C1488.75 624.257 1526.08 665.584 1550.67 701.92C1618.65 802.474 1688.31 906.767 1714.8 1026.03C1741.29 1145.3 1713.08 1284.47 1618.63 1344.72" stroke="#FFF0EE" stroke-miterlimit="10"/>
<path opacity="0.3" d="M1030.81 1355.23C1037.48 1278.15 1108.48 1225.22 1116.35 1148.23C1120.99 1102 1101.96 1055.59 1097.38 1008.92C1092.81 962.256 1112.71 905.652 1155.91 902.982C1175.72 901.752 1194.83 912.409 1214.17 918.608C1276.53 938.551 1347.21 906.488 1374.72 845.775C1394.44 802.288 1396.71 743.618 1435.58 719.542C1465 701.316 1503.56 711.694 1536.21 726.507C1573.74 743.616 1608.87 765.574 1640.69 791.817" stroke="#FFF0EE" stroke-miterlimit="10"/>
<path opacity="0.3" d="M1149.92 1293.34C1179.06 1208.22 1208.18 1114.56 1175.46 1031.37C1164.81 1004.16 1151.67 965.693 1178.04 951.971C1199.87 940.594 1223.2 961.583 1245.37 971.799C1284.85 989.978 1333.14 972.077 1366.11 943.497C1399.08 914.916 1422.27 876.84 1451.71 844.73C1481.16 812.62 1521.62 784.922 1565.18 788.451C1621.25 793.094 1660.66 849.35 1665.18 904.538C1669.71 959.726 1648.19 1013.66 1627.04 1065.41C1620.42 1081.66 1613.43 1098.31 1600.59 1110.34" stroke="#FFF0EE" stroke-miterlimit="10"/>
<path opacity="0.3" d="M1206.81 1342.98C1223.06 1286.09 1239.11 1227.14 1232.81 1166.52C1228.8 1127.52 1219.21 1078.3 1249.07 1058.66C1273.38 1042.68 1306.65 1060.42 1334.97 1054.78C1399.8 1041.87 1403 922.787 1468.08 911.039C1510.71 903.354 1551.27 955.547 1548.77 1002.84C1546.26 1050.13 1512.89 1087.49 1474.89 1108.39C1450.24 1121.9 1423.09 1130.25 1395.11 1132.93C1373.28 1135.02 1349.6 1134.11 1332 1147.42C1313.98 1161.04 1306.86 1187.16 1308.53 1211.8C1310.2 1236.43 1319.32 1260.18 1328.59 1283.26C1333.39 1295.22 1338.36 1308.29 1335.55 1320.41C1332.19 1334.34 1319.6 1342.35 1308.04 1349.01L1232.81 1392.27C1217.79 1400.93 1190.16 1401.55 1190.77 1382.63" stroke="#FFF0EE" stroke-miterlimit="10"/>
</g>
<path d="M1063.32 41.7095C1063.32 46.3933 1061.93 50.9719 1059.33 54.8664C1056.73 58.7608 1053.03 61.7962 1048.7 63.5886C1044.37 65.381 1039.61 65.85 1035.02 64.9363C1030.42 64.0225 1026.2 61.767 1022.89 58.455C1019.58 55.1431 1017.32 50.9234 1016.41 46.3296C1015.5 41.7358 1015.97 36.9742 1017.76 32.6469C1019.55 28.3196 1022.59 24.6211 1026.48 22.0189C1030.38 19.4167 1034.95 18.0278 1039.64 18.0278C1042.75 18.0247 1045.83 18.6352 1048.7 19.8242C1051.58 21.0132 1054.19 22.7575 1056.39 24.9572C1058.59 27.1569 1060.33 29.7687 1061.52 32.6433C1062.71 35.5179 1063.32 38.5987 1063.32 41.7095Z" stroke="#FFF0EE" stroke-width="2" stroke-miterlimit="10"/>
<path d="M885.033 900.611C885.335 900.843 885.637 901.168 885.939 901.354C886.241 901.539 886.635 901.772 887.007 901.957C887.384 902.098 887.772 902.206 888.168 902.282C888.571 902.377 888.985 902.416 889.398 902.398C889.797 902.417 890.195 902.378 890.582 902.282C890.979 902.213 891.368 902.104 891.743 901.957C892.11 901.789 892.459 901.587 892.788 901.354C893.134 901.156 893.448 900.905 893.717 900.611C894.823 899.417 895.438 897.85 895.438 896.222C895.438 894.595 894.823 893.028 893.717 891.834C892.567 890.696 891.016 890.054 889.398 890.046C888.986 890.06 888.575 890.099 888.168 890.163C887.766 890.233 887.375 890.358 887.007 890.534C886.624 890.664 886.264 890.852 885.939 891.091L885.033 891.834C883.874 893 883.223 894.578 883.223 896.222C883.223 897.867 883.874 899.445 885.033 900.611ZM883.362 931.607C883.43 931.987 883.531 932.36 883.664 932.722C883.841 933.103 884.051 933.468 884.29 933.813C884.488 934.159 884.739 934.473 885.033 934.742C885.609 935.307 886.276 935.77 887.007 936.111C887.748 936.395 888.535 936.544 889.329 936.552C890.134 936.56 890.932 936.403 891.675 936.092C892.417 935.781 893.088 935.321 893.647 934.742C893.943 934.455 894.215 934.144 894.46 933.813L895.017 932.722L895.388 931.607C895.631 930.405 895.501 929.158 895.017 928.031C894.72 927.269 894.251 926.586 893.647 926.035C893.087 925.455 892.416 924.994 891.674 924.679C890.932 924.364 890.135 924.201 889.329 924.2C888.531 924.214 887.743 924.38 887.007 924.688C886.254 924.979 885.579 925.44 885.033 926.035C884.451 926.605 883.986 927.283 883.664 928.031C883.367 928.769 883.217 929.558 883.222 930.353C883.198 930.776 883.246 931.2 883.362 931.607ZM885.033 968.895C886.196 970.043 887.765 970.686 889.398 970.683C890.189 970.661 890.971 970.52 891.72 970.265C892.447 969.918 893.114 969.455 893.694 968.895C893.984 968.603 894.255 968.293 894.506 967.967L895.063 966.852L895.435 965.738C895.614 964.741 895.55 963.715 895.247 962.749C894.943 961.783 894.41 960.904 893.694 960.189C893.145 959.592 892.471 959.125 891.72 958.819C890.985 958.509 890.196 958.343 889.398 958.331C888.985 958.341 888.573 958.388 888.168 958.47C887.767 958.533 887.376 958.65 887.007 958.819C886.623 958.957 886.263 959.152 885.939 959.399C885.606 959.624 885.302 959.889 885.033 960.189C884.452 960.75 883.986 961.421 883.664 962.162C883.371 962.901 883.221 963.689 883.222 964.484C883.21 965.304 883.365 966.117 883.676 966.875C883.987 967.634 884.449 968.321 885.033 968.895ZM850.881 900.611C851.169 900.883 851.48 901.132 851.809 901.354C852.149 901.582 852.506 901.784 852.877 901.957C853.255 902.098 853.643 902.206 854.038 902.282C854.425 902.378 854.824 902.417 855.222 902.398C855.636 902.42 856.05 902.381 856.453 902.282C856.848 902.206 857.236 902.098 857.614 901.957C857.98 901.789 858.33 901.587 858.658 901.354C859.005 901.156 859.318 900.905 859.587 900.611C860.694 899.417 861.308 897.85 861.308 896.222C861.308 894.595 860.694 893.028 859.587 891.834C858.422 890.691 856.855 890.049 855.222 890.046C854.826 890.062 854.43 890.101 854.038 890.163C853.636 890.233 853.246 890.358 852.877 890.534C852.491 890.654 852.129 890.843 851.809 891.091C851.507 891.347 851.136 891.579 850.881 891.834C850.301 892.408 849.84 893.092 849.526 893.845C849.212 894.598 849.051 895.406 849.051 896.222C849.051 897.039 849.212 897.846 849.526 898.6C849.84 899.353 850.301 900.036 850.881 900.611ZM849.163 931.607L849.534 932.722L850.091 933.813C850.335 934.138 850.599 934.449 850.881 934.742C851.163 935.021 851.475 935.27 851.809 935.484C852.172 935.743 852.561 935.961 852.97 936.135C853.348 936.268 853.736 936.369 854.131 936.436C854.53 936.554 854.946 936.601 855.362 936.576C856.156 936.575 856.944 936.425 857.683 936.135C858.79 935.603 859.747 934.805 860.469 933.813L861.027 932.722L861.398 931.607C861.64 930.405 861.511 929.158 861.027 928.031C860.696 927.288 860.232 926.611 859.657 926.035C859.107 925.445 858.433 924.985 857.683 924.688C856.95 924.372 856.16 924.206 855.362 924.2C854.952 924.164 854.54 924.164 854.131 924.2C853.726 924.26 853.334 924.386 852.97 924.572C852.584 924.692 852.222 924.881 851.902 925.129C851.572 925.367 851.261 925.631 850.973 925.919C850.405 926.495 849.949 927.173 849.627 927.915C849.315 928.65 849.149 929.439 849.139 930.237C849.106 930.694 849.114 931.152 849.163 931.607ZM849.163 965.738C849.23 966.117 849.331 966.49 849.464 966.852L850.022 967.967C850.277 968.269 850.509 968.594 850.811 968.895C851.387 969.471 852.064 969.935 852.808 970.265C853.557 970.516 854.339 970.657 855.129 970.683C855.524 970.706 855.919 970.706 856.313 970.683C856.706 970.604 857.093 970.504 857.474 970.381C857.846 970.214 858.197 970.004 858.519 969.754C858.88 969.579 859.197 969.325 859.448 969.011C860.307 968.144 860.894 967.045 861.137 965.849C861.381 964.653 861.27 963.412 860.818 962.278C860.512 961.528 860.044 960.854 859.448 960.305C859.187 959.989 858.873 959.722 858.519 959.515C858.206 959.264 857.853 959.068 857.474 958.935C857.105 958.766 856.715 958.649 856.313 958.587C855.923 958.506 855.527 958.46 855.129 958.447C854.333 958.472 853.547 958.637 852.808 958.935C852.05 959.24 851.369 959.708 850.811 960.305C850.24 960.869 849.787 961.542 849.48 962.283C849.173 963.025 849.018 963.821 849.023 964.623C849.034 965.003 849.105 965.379 849.232 965.738L849.163 965.738ZM816.658 900.727C816.932 901.016 817.245 901.266 817.587 901.47C817.919 901.698 818.268 901.9 818.632 902.073C819.017 902.214 819.413 902.323 819.816 902.398C820.218 902.497 820.633 902.536 821.046 902.515C821.444 902.534 821.843 902.494 822.23 902.398C822.626 902.323 823.014 902.214 823.391 902.073C823.757 901.905 824.107 901.703 824.436 901.47C824.774 901.26 825.086 901.01 825.365 900.727C826.481 899.538 827.103 897.969 827.103 896.339C827.103 894.708 826.481 893.139 825.365 891.95C825.074 891.68 824.763 891.432 824.436 891.207C824.128 890.955 823.773 890.766 823.391 890.65C823.023 890.474 822.632 890.349 822.23 890.279C821.838 890.217 821.443 890.178 821.046 890.163C820.233 890.153 819.425 890.307 818.672 890.614C817.918 890.921 817.234 891.375 816.658 891.951C816.083 892.526 815.629 893.211 815.321 893.964C815.014 894.718 814.861 895.525 814.87 896.339C814.914 897.954 815.589 899.488 816.751 900.611L816.658 900.727ZM816.658 934.858C816.926 935.153 817.24 935.404 817.587 935.601C817.913 935.845 818.263 936.055 818.632 936.227C819.017 936.361 819.413 936.462 819.816 936.529C820.199 936.644 820.6 936.691 821 936.669C821.415 936.69 821.831 936.643 822.23 936.529C822.625 936.461 823.013 936.36 823.391 936.227C823.763 936.06 824.113 935.85 824.436 935.601C824.787 935.41 825.102 935.158 825.365 934.858C826.222 933.994 826.808 932.899 827.051 931.707C827.295 930.515 827.184 929.278 826.735 928.147C826.429 927.39 825.962 926.708 825.365 926.151C825.098 925.841 824.785 925.575 824.436 925.361C824.128 925.109 823.773 924.92 823.391 924.804C823.027 924.618 822.635 924.493 822.23 924.433C821.821 924.399 821.409 924.399 821 924.433C820.606 924.398 820.21 924.398 819.816 924.433C819.404 924.492 819.004 924.617 818.632 924.804C818.252 924.924 817.898 925.113 817.587 925.361C817.243 925.581 816.931 925.847 816.658 926.151C816.068 926.709 815.608 927.391 815.312 928.147C814.865 929.277 814.754 930.511 814.993 931.702C815.232 932.892 815.81 933.988 816.658 934.858ZM814.94 965.854L815.312 966.968L815.869 968.083C816.124 968.385 816.356 968.71 816.658 969.011C817.242 969.566 817.908 970.028 818.632 970.381C819.381 970.634 820.163 970.775 820.953 970.799C821.744 970.776 822.526 970.636 823.275 970.381C824.002 970.034 824.669 969.571 825.249 969.011C825.539 968.72 825.81 968.409 826.061 968.083L826.618 966.968L826.99 965.854C827.164 964.857 827.096 963.833 826.793 962.868C826.49 961.902 825.961 961.023 825.249 960.305C824.7 959.708 824.026 959.241 823.275 958.935C822.539 958.627 821.751 958.461 820.953 958.447C820.156 958.463 819.368 958.628 818.632 958.935C817.884 959.246 817.211 959.713 816.658 960.305C816.081 960.866 815.621 961.538 815.306 962.279C814.991 963.021 814.827 963.818 814.824 964.623C814.864 965 814.934 965.372 815.033 965.738L814.94 965.854ZM782.436 900.843C783.583 901.986 785.135 902.629 786.754 902.631C787.549 902.632 788.337 902.482 789.076 902.19C789.802 901.85 790.468 901.395 791.049 900.843C792.166 899.655 792.788 898.085 792.788 896.455C792.788 894.824 792.166 893.255 791.049 892.066C790.485 891.506 789.814 891.064 789.076 890.766C788.338 890.463 787.551 890.297 786.754 890.279C785.956 890.294 785.169 890.459 784.432 890.766C783.694 891.064 783.023 891.506 782.459 892.066C781.879 892.641 781.419 893.324 781.105 894.077C780.791 894.831 780.629 895.638 780.629 896.455C780.629 897.271 780.791 898.079 781.105 898.832C781.419 899.585 781.879 900.269 782.459 900.843L782.436 900.843ZM780.718 931.839L781.089 932.954L781.646 934.045C781.883 934.376 782.147 934.687 782.436 934.974C783.016 935.533 783.682 935.996 784.409 936.344C785.148 936.637 785.936 936.786 786.731 936.785C787.547 936.794 788.356 936.638 789.11 936.327C789.864 936.016 790.547 935.555 791.119 934.974C791.415 934.687 791.687 934.376 791.932 934.045L792.489 932.954L792.86 931.839C793.044 930.635 792.916 929.404 792.489 928.264C792.158 927.52 791.694 926.843 791.119 926.267C790.545 925.686 789.862 925.225 789.109 924.91C788.355 924.596 787.547 924.433 786.731 924.433C785.932 924.436 785.142 924.602 784.409 924.92C783.66 925.217 782.985 925.677 782.436 926.267C781.279 927.418 780.62 928.977 780.602 930.609C780.709 930.95 780.841 931.284 780.996 931.607L780.718 931.839ZM782.436 969.128C783.446 970.141 784.776 970.773 786.2 970.914C787.624 971.056 789.052 970.699 790.242 969.904C791.432 969.109 792.308 967.926 792.722 966.556C793.136 965.186 793.062 963.715 792.512 962.394C792.206 961.644 791.739 960.97 791.142 960.421C790.572 959.834 789.89 959.367 789.136 959.048C788.382 958.729 787.572 958.564 786.754 958.563C786.364 958.575 785.975 958.622 785.593 958.703C785.183 958.755 784.783 958.873 784.409 959.051C784.031 959.184 783.677 959.38 783.364 959.631C783.015 959.844 782.702 960.11 782.436 960.421C781.846 960.971 781.386 961.645 781.089 962.394C780.782 963.131 780.616 963.918 780.602 964.716C780.706 966.319 781.43 967.818 782.621 968.895L782.436 969.128ZM748.492 900.611C748.766 900.9 749.078 901.15 749.421 901.354C749.749 901.587 750.099 901.789 750.465 901.957C750.848 902.107 751.244 902.216 751.649 902.282C752.028 902.378 752.42 902.417 752.81 902.398C753.224 902.419 753.638 902.38 754.041 902.282C754.444 902.207 754.84 902.098 755.225 901.957C755.591 901.789 755.941 901.587 756.27 901.354C756.603 901.138 756.915 900.889 757.198 900.611C758.305 899.417 758.919 897.85 758.919 896.222C758.919 894.595 758.305 893.028 757.198 891.834C756.027 890.685 754.451 890.043 752.81 890.046C752.421 890.062 752.034 890.101 751.649 890.163C751.238 890.223 750.838 890.348 750.465 890.534C750.084 890.649 749.729 890.839 749.421 891.091C749.089 891.31 748.778 891.559 748.492 891.834C747.912 892.408 747.452 893.092 747.138 893.845C746.824 894.598 746.662 895.406 746.662 896.222C746.662 897.039 746.824 897.846 747.138 898.6C747.452 899.353 747.912 900.036 748.492 900.611ZM746.774 931.607C746.959 932.425 747.273 933.208 747.702 933.929C747.939 934.26 748.203 934.571 748.492 934.858C749.052 935.436 749.723 935.895 750.465 936.206C751.208 936.518 752.005 936.675 752.81 936.669C753.604 936.658 754.39 936.508 755.132 936.227C755.859 935.88 756.526 935.417 757.106 934.858C757.393 934.582 757.643 934.27 757.848 933.929C758.088 933.584 758.298 933.219 758.475 932.838C758.598 932.472 758.698 932.1 758.777 931.723C759.019 930.527 758.914 929.286 758.475 928.147C758.145 927.404 757.681 926.727 757.106 926.151C756.556 925.561 755.882 925.101 755.132 924.804C754.395 924.498 753.608 924.333 752.81 924.316C752.005 924.32 751.208 924.484 750.466 924.799C749.725 925.114 749.054 925.573 748.492 926.151C747.902 926.709 747.442 927.391 747.145 928.147C746.823 928.879 746.657 929.67 746.658 930.469C746.668 930.851 746.706 931.231 746.774 931.607ZM746.774 965.738L747.145 966.852L747.702 967.967C747.945 968.293 748.209 968.603 748.492 968.895C749.072 969.455 749.738 969.918 750.465 970.265C751.214 970.518 751.997 970.659 752.787 970.683C753.577 970.654 754.359 970.514 755.109 970.265C755.836 969.918 756.502 969.455 757.082 968.895C757.936 968.025 758.52 966.926 758.763 965.731C759.006 964.537 758.898 963.297 758.452 962.162C758.121 961.426 757.657 960.756 757.082 960.189C756.533 959.592 755.86 959.124 755.109 958.819C754.371 958.517 753.584 958.352 752.787 958.331C751.989 958.346 751.202 958.512 750.465 958.819C749.715 959.124 749.041 959.592 748.492 960.189C747.914 960.75 747.455 961.422 747.14 962.163C746.825 962.905 746.661 963.702 746.658 964.507C746.661 964.92 746.699 965.332 746.774 965.738ZM714.269 900.727C714.543 901.016 714.856 901.266 715.198 901.47C715.527 901.703 715.877 901.905 716.243 902.073C716.625 902.223 717.022 902.332 717.427 902.398C717.806 902.494 718.197 902.534 718.588 902.515C719.001 902.535 719.416 902.496 719.818 902.398C720.219 902.314 720.615 902.205 721.002 902.073C721.374 901.888 721.676 901.702 722.047 901.47C722.419 901.238 722.674 900.959 722.976 900.727C724.072 899.528 724.68 897.963 724.68 896.339C724.68 894.714 724.072 893.149 722.976 891.95C721.805 890.801 720.229 890.159 718.588 890.163C718.199 890.178 717.811 890.217 717.427 890.279C717.015 890.339 716.615 890.464 716.243 890.65C715.861 890.766 715.506 890.955 715.198 891.207C714.866 891.426 714.556 891.675 714.269 891.95C713.681 892.52 713.213 893.202 712.894 893.955C712.574 894.709 712.409 895.52 712.409 896.339C712.409 897.157 712.574 897.968 712.894 898.722C713.213 899.476 713.681 900.157 714.269 900.727ZM714.269 934.858C714.89 935.387 715.567 935.847 716.289 936.227C716.672 936.369 717.069 936.47 717.473 936.529C717.849 936.644 718.242 936.691 718.634 936.669C719.049 936.693 719.466 936.646 719.865 936.529C720.265 936.453 720.661 936.352 721.049 936.227C721.412 936.044 721.761 935.835 722.094 935.601C722.42 935.374 722.73 935.126 723.022 934.858C723.869 933.988 724.449 932.893 724.691 931.703C724.934 930.514 724.83 929.28 724.392 928.147C724.062 927.404 723.597 926.727 723.022 926.151C722.721 925.849 722.395 925.617 722.094 925.361C721.777 925.122 721.424 924.934 721.049 924.804C720.673 924.628 720.274 924.503 719.865 924.433C719.455 924.397 719.044 924.397 718.634 924.433C718.248 924.398 717.86 924.398 717.473 924.433C717.059 924.482 716.658 924.608 716.289 924.804C715.908 924.92 715.553 925.109 715.244 925.361C714.895 925.593 714.568 925.857 714.269 926.151C713.708 926.724 713.266 927.402 712.969 928.147C712.639 928.877 712.465 929.668 712.458 930.469C712.513 932.078 713.177 933.605 714.316 934.742L714.269 934.858ZM712.598 965.854C712.658 966.244 712.784 966.62 712.969 966.968C713.098 967.366 713.286 967.741 713.526 968.083C713.769 968.409 714.033 968.72 714.316 969.011C714.896 969.571 715.562 970.034 716.289 970.381C717.038 970.634 717.821 970.775 718.611 970.799C719.4 970.765 720.181 970.624 720.933 970.381C721.66 970.034 722.326 969.571 722.906 969.011C723.189 968.731 723.438 968.42 723.649 968.083C723.905 967.711 724.067 967.34 724.276 966.968C724.398 966.603 724.499 966.231 724.578 965.854C724.777 964.863 724.728 963.838 724.436 962.87C724.145 961.902 723.619 961.021 722.906 960.305C722.357 959.708 721.683 959.241 720.933 958.935C720.192 958.641 719.407 958.476 718.611 958.447C717.813 958.462 717.026 958.628 716.289 958.935C715.539 959.241 714.865 959.708 714.316 960.305C713.735 960.865 713.272 961.536 712.953 962.277C712.634 963.019 712.466 963.816 712.458 964.623C712.491 964.999 712.553 965.372 712.644 965.738L712.598 965.854ZM680.093 900.843C680.438 901.024 680.795 901.179 681.161 901.307C681.49 901.541 681.84 901.743 682.206 901.911C682.588 902.06 682.985 902.169 683.39 902.236C683.769 902.332 684.161 902.371 684.551 902.352C684.965 902.372 685.379 902.333 685.782 902.236C686.162 902.16 686.535 902.051 686.896 901.911C687.284 901.743 687.657 901.541 688.01 901.307C688.312 901.122 688.637 900.796 688.939 900.564C690.036 899.366 690.644 897.8 690.644 896.176C690.644 894.552 690.036 892.986 688.939 891.788L688.01 891.045C687.677 890.791 687.299 890.602 686.896 890.488C686.544 890.312 686.169 890.187 685.782 890.116C685.374 890.053 684.963 890.015 684.551 890C682.916 890.025 681.35 890.663 680.163 891.788C679.046 892.98 678.409 894.543 678.375 896.176C678.384 897.828 679.023 899.415 680.163 900.611L680.093 900.843ZM678.445 931.839C678.505 932.229 678.631 932.606 678.816 932.954C678.97 933.333 679.156 933.698 679.374 934.045C679.61 934.376 679.874 934.687 680.163 934.974C680.743 935.533 681.409 935.996 682.136 936.344C682.875 936.637 683.663 936.786 684.458 936.785C684.873 936.809 685.29 936.762 685.689 936.645C686.068 936.577 686.441 936.476 686.803 936.344C687.197 936.177 687.571 935.966 687.918 935.717C688.244 935.491 688.554 935.242 688.846 934.974C689.697 934.106 690.277 933.01 690.516 931.819C690.755 930.627 690.643 929.392 690.193 928.264C689.863 927.525 689.408 926.849 688.846 926.267C688.544 925.965 688.219 925.733 687.918 925.477C687.584 925.223 687.206 925.034 686.803 924.92C686.455 924.734 686.078 924.609 685.689 924.549C685.279 924.513 684.868 924.513 684.458 924.549C683.659 924.552 682.869 924.718 682.136 925.036C681.387 925.333 680.713 925.793 680.163 926.383C679.565 926.935 679.104 927.619 678.816 928.38C678.487 929.11 678.313 929.9 678.306 930.701C678.357 931.007 678.427 931.31 678.515 931.607L678.445 931.839ZM680.093 969.128C680.388 969.423 680.725 969.673 681.092 969.871C681.414 970.12 681.765 970.33 682.136 970.497C682.523 970.628 682.919 970.729 683.321 970.799C683.707 970.822 684.095 970.822 684.481 970.799C685.499 970.809 686.503 970.565 687.404 970.091C688.305 969.617 689.074 968.927 689.642 968.082C690.21 967.238 690.56 966.265 690.66 965.253C690.761 964.24 690.608 963.218 690.216 962.278C689.902 961.538 689.444 960.867 688.87 960.305C687.71 959.13 686.132 958.462 684.481 958.447C684.091 958.459 683.703 958.506 683.321 958.587C682.91 958.639 682.51 958.757 682.136 958.935C681.758 959.068 681.405 959.264 681.092 959.515C680.734 959.745 680.399 960.009 680.093 960.305C678.994 961.48 678.359 963.015 678.306 964.623C678.371 966.229 679.034 967.752 680.163 968.895L680.093 969.128ZM646.103 900.611C646.667 901.182 647.34 901.634 648.082 901.941C648.823 902.248 649.619 902.404 650.422 902.398C651.218 902.413 652.008 902.263 652.743 901.957C653.491 901.619 654.18 901.164 654.786 900.611C655.883 899.412 656.491 897.847 656.491 896.222C656.491 894.598 655.883 893.033 654.786 891.834C654.208 891.257 653.511 890.814 652.743 890.534C652.008 890.224 651.22 890.059 650.422 890.046C649.624 890.061 648.836 890.227 648.1 890.534C647.362 890.831 646.691 891.274 646.126 891.834C645.538 892.404 645.07 893.086 644.751 893.839C644.431 894.593 644.266 895.404 644.266 896.222C644.266 897.041 644.431 897.852 644.751 898.605C645.07 899.359 645.538 900.041 646.126 900.611L646.103 900.611ZM644.385 931.607C644.445 931.997 644.571 932.374 644.756 932.722C644.881 933.113 645.069 933.482 645.314 933.813L646.033 934.742C646.651 935.287 647.338 935.747 648.077 936.111C649.211 936.56 650.451 936.67 651.647 936.427C652.842 936.183 653.941 935.598 654.81 934.742C655.077 934.448 655.325 934.138 655.553 933.813C655.779 933.471 655.966 933.105 656.11 932.722C656.285 932.369 656.41 931.994 656.481 931.607C656.723 930.405 656.594 929.158 656.11 928.031C655.804 927.291 655.363 926.614 654.81 926.035C653.64 924.877 652.067 924.219 650.422 924.2C649.623 924.204 648.833 924.37 648.1 924.688C647.338 925.001 646.645 925.458 646.057 926.035C645.502 926.609 645.068 927.287 644.78 928.031C644.45 928.761 644.276 929.552 644.269 930.353C644.273 930.774 644.312 931.193 644.385 931.607ZM644.385 965.738C644.445 966.128 644.571 966.504 644.756 966.852C644.885 967.249 645.073 967.625 645.314 967.967L646.033 968.895C646.651 969.441 647.338 969.901 648.077 970.265C648.826 970.518 649.608 970.659 650.398 970.683C652.036 970.672 653.607 970.032 654.786 968.895C655.642 968.026 656.221 966.923 656.452 965.725C656.684 964.527 656.556 963.288 656.087 962.162C655.781 961.429 655.34 960.759 654.786 960.189C654.494 959.905 654.184 959.642 653.858 959.399C653.511 959.161 653.137 958.966 652.743 958.819C652.39 958.65 652.015 958.533 651.629 958.47C651.223 958.388 650.812 958.342 650.398 958.331C649.601 958.346 648.813 958.512 648.077 958.819C647.314 959.14 646.62 959.605 646.033 960.189C644.907 961.347 644.267 962.892 644.246 964.507C644.256 964.921 644.303 965.332 644.385 965.738ZM611.881 900.727C612.194 901 612.527 901.249 612.879 901.47C613.208 901.703 613.557 901.905 613.924 902.073C614.306 902.223 614.703 902.332 615.108 902.398C615.487 902.494 615.878 902.534 616.269 902.515C616.682 902.535 617.097 902.496 617.499 902.398C617.879 902.322 618.252 902.214 618.614 902.073C618.985 901.888 619.357 901.702 619.728 901.47C620.1 901.238 620.355 900.959 620.657 900.727C621.753 899.528 622.361 897.963 622.361 896.339C622.361 894.714 621.753 893.149 620.657 891.95C619.478 890.814 617.907 890.174 616.269 890.163C615.88 890.178 615.492 890.217 615.108 890.279C614.696 890.339 614.296 890.464 613.924 890.65C613.542 890.766 613.187 890.955 612.879 891.207C612.507 891.463 612.206 891.695 611.881 891.95C610.732 893.122 610.089 894.698 610.089 896.339C610.089 897.979 610.732 899.555 611.881 900.727ZM611.881 934.858C612.188 935.138 612.522 935.387 612.879 935.601C613.177 935.811 613.496 935.99 613.831 936.135C614.214 936.276 614.611 936.377 615.015 936.436C615.391 936.551 615.784 936.598 616.176 936.576C616.591 936.6 617.007 936.553 617.406 936.436C617.786 936.368 618.159 936.267 618.521 936.135C618.907 935.952 619.279 935.743 619.635 935.508C619.961 935.281 620.272 935.033 620.564 934.765C621.417 933.898 621.996 932.8 622.227 931.606C622.458 930.412 622.332 929.177 621.864 928.055C621.558 927.314 621.117 926.637 620.564 926.058C620.262 925.756 619.937 925.524 619.635 925.268C619.294 925.028 618.918 924.84 618.521 924.711C618.173 924.526 617.796 924.4 617.406 924.34C616.997 924.304 616.585 924.304 616.176 924.34C615.79 924.305 615.401 924.305 615.015 924.34C614.601 924.389 614.199 924.515 613.831 924.711C613.449 924.827 613.095 925.016 612.786 925.268C612.434 925.506 612.1 925.769 611.788 926.058C611.233 926.632 610.799 927.311 610.511 928.055C610.181 928.785 610.007 929.575 610 930.376C610.041 932.024 610.724 933.591 611.904 934.742L611.881 934.858ZM611.881 969.011C612.176 969.306 612.512 969.557 612.879 969.754C613.201 970.004 613.552 970.214 613.924 970.381C614.31 970.512 614.706 970.613 615.108 970.683C615.494 970.706 615.882 970.706 616.269 970.683C617.059 970.661 617.842 970.52 618.59 970.265C619.347 969.934 620.039 969.47 620.634 968.895C620.866 968.594 621.191 968.269 621.377 967.967C621.599 967.615 621.786 967.241 621.934 966.852C622.109 966.5 622.234 966.125 622.305 965.738C622.504 964.747 622.455 963.722 622.164 962.754C621.872 961.786 621.347 960.905 620.634 960.189C620.059 959.59 619.362 959.123 618.59 958.819C617.855 958.509 617.067 958.343 616.269 958.331C615.878 958.343 615.49 958.39 615.108 958.47C614.697 958.523 614.297 958.641 613.924 958.819C613.545 958.952 613.192 959.148 612.879 959.399C612.521 959.629 612.187 959.893 611.881 960.189C610.781 961.364 610.146 962.899 610.093 964.507C610.105 966.149 610.755 967.722 611.904 968.895L611.881 969.011Z" fill="white"/>
<defs>
<radialGradient id="paint0_radial_5_69" cx="0" cy="0" r="1" gradientUnits="userSpaceOnUse" gradientTransform="translate(786.025 528.579) scale(781.084 781.057)">
<stop stop-color="#8E6AD0"/>
<stop offset="0.77" stop-color="#6C4EB0"/>
<stop offset="1" stop-color="#6044A5"/>
</radialGradient>
<radialGradient id="paint1_radial_5_69" cx="0" cy="0" r="1" gradientUnits="userSpaceOnUse" gradientTransform="translate(1208.93 1361.21) rotate(16.2597) scale(1824.37 1824.31)">
<stop stop-color="#6044A5"/>
<stop offset="0.23" stop-color="#6C4EB0"/>
<stop offset="1" stop-color="#8E6AD0"/>
</radialGradient>
<linearGradient id="paint2_linear_5_69" x1="208.728" y1="1124.92" x2="2338" y2="1124.92" gradientUnits="userSpaceOnUse">
<stop stop-color="#8E6AD0"/>
<stop offset="0.77" stop-color="#6C4EB0"/>
<stop offset="1" stop-color="#6044A5"/>
</linearGradient>
<linearGradient id="paint3_linear_5_69" x1="-176.671" y1="813.944" x2="1277" y2="813.944" gradientUnits="userSpaceOnUse">
<stop stop-color="#6044A5"/>
<stop offset="0.17" stop-color="#6145A6" stop-opacity="0.98"/>
<stop offset="0.33" stop-color="#6447A9" stop-opacity="0.91"/>
<stop offset="0.48" stop-color="#694CAD" stop-opacity="0.8"/>
<stop offset="0.62" stop-color="#7051B4" stop-opacity="0.65"/>
<stop offset="0.76" stop-color="#7959BD" stop-opacity="0.45"/>
<stop offset="0.9" stop-color="#8562C7" stop-opacity="0.21"/>
<stop offset="1" stop-color="#8E6AD0" stop-opacity="0"/>
</linearGradient>
</defs>
</svg>
